<svg width="17" height="12" viewBox="0 0 17 12" fill="none" xmlns="http://www.w3.org/2000/svg">
<g clip-path="url(#clip0_3310_6884)">
<path d="M14.5277 1.5199C12.5671 0.0529391 10.6888 0.094034 10.6888 0.094034L10.4968 0.313321C12.8276 1.01261 13.9108 2.04083 13.9108 2.04083C10.5762 0.204856 6.32854 0.217993 2.86004 2.04083C2.86004 2.04083 3.98426 0.957706 6.45216 0.258415L6.31507 0.0938657C6.31507 0.0938657 4.45046 0.0527704 2.47621 1.51973C2.47621 1.51973 0.501953 5.07076 0.501953 9.44436C0.501953 9.44436 1.65363 11.4186 4.68372 11.5146C4.68372 11.5146 5.19101 10.9113 5.6023 10.3904C3.86098 9.86946 3.20295 8.78634 3.20295 8.78634C4.29686 9.47081 5.40306 9.89927 6.78143 10.1711C9.02415 10.6328 11.8137 10.1581 13.8971 8.78634C13.8971 8.78634 13.2116 9.89692 11.4156 10.4042C11.8269 10.9115 12.3205 11.501 12.3205 11.501C15.3503 11.4051 16.5019 9.43089 16.5019 9.44453C16.5019 5.07093 14.5277 1.5199 14.5277 1.5199ZM5.94487 8.16957C5.17703 8.16957 4.54646 7.49773 4.54646 6.66135C4.60254 4.65846 7.30135 4.66469 7.34346 6.66135C7.34329 7.49773 6.72635 8.16957 5.94487 8.16957ZM10.9492 8.16957C10.1814 8.16957 9.5508 7.49773 9.5508 6.66135C9.61245 4.66233 12.2776 4.66149 12.3478 6.66135C12.3476 7.49773 11.7307 8.16957 10.9492 8.16957Z" fill="#A2A2AC"/>
</g>
<defs>
<clipPath id="clip0_3310_6884">
<rect width="17" height="12" fill="white"/>
</clipPath>
</defs>
</svg>
