<svg width="15" height="12" viewBox="0 0 15 12" fill="none" xmlns="http://www.w3.org/2000/svg">
<path d="M14.7692 1.42928C14.3325 2.06452 13.8263 2.58065 13.2506 2.97767V3.39454C13.2506 4.3871 13.062 5.39454 12.6849 6.41687C12.3077 7.43921 11.7568 8.36228 11.0323 9.1861C10.3077 10.0099 9.40943 10.6849 8.33747 11.2109C7.26551 11.737 6.03474 12 4.64516 12C3.77171 12 2.94789 11.8809 2.1737 11.6427C1.3995 11.4045 0.674938 11.067 0 10.6303C0.119107 10.6501 0.238213 10.665 0.35732 10.6749C0.476427 10.6849 0.595534 10.6898 0.71464 10.6898C1.42928 10.6898 2.10918 10.5707 2.75434 10.3325C3.3995 10.0943 3.98015 9.77668 4.49628 9.37965C3.82134 9.3598 3.23077 9.15633 2.72457 8.76923C2.21836 8.38213 1.86601 7.88089 1.66749 7.26551C1.76675 7.30521 1.86104 7.32506 1.95037 7.32506H2.23325C2.51117 7.32506 2.76923 7.29529 3.00744 7.23573C2.31266 7.07692 1.73697 6.72457 1.2804 6.17866C0.823821 5.63275 0.595534 4.99256 0.595534 4.25806V4.22829C0.813896 4.32754 1.03226 4.41191 1.25062 4.48139C1.46898 4.55087 1.7072 4.58561 1.96526 4.58561C1.56824 4.30769 1.24566 3.95037 0.997519 3.51365C0.74938 3.07692 0.62531 2.6005 0.62531 2.08437C0.62531 1.52854 0.764268 1.02233 1.04218 0.565757C1.79653 1.47891 2.70968 2.21836 3.78164 2.78412C4.8536 3.34988 6.01489 3.66253 7.26551 3.72208C7.20596 3.48387 7.17618 3.25558 7.17618 3.03722C7.17618 2.62035 7.25558 2.22829 7.41439 1.86104C7.5732 1.4938 7.79156 1.17122 8.06948 0.8933C8.34739 0.615385 8.66998 0.397022 9.03722 0.238213C9.40447 0.0794045 9.79653 0 10.2134 0C10.6501 0 11.0571 0.0843673 11.4342 0.253102C11.8114 0.421836 12.139 0.655087 12.4169 0.952854C12.7742 0.8933 13.1117 0.799007 13.4293 0.669975C13.7469 0.540943 14.0546 0.387097 14.3524 0.208437C14.1141 0.942928 13.6675 1.50868 13.0124 1.90571C13.6476 1.80645 14.2333 1.64764 14.7692 1.42928Z" fill="#A2A2AC"/>
</svg>
