<?xml version="1.0" encoding="UTF-8"?><svg id="Layer_2" xmlns="http://www.w3.org/2000/svg" viewBox="0 0 667.49 193.29"><defs><style>.cls-1{fill:#fff;stroke-width:0px;}</style></defs><g id="Layer_1-2"><path class="cls-1" d="M191.6,111.53h35.37c11.92,0,15.68,4.59,15.68,11.22,0,5.48-3.19,8.92-7.9,10.58,5.74,1.47,10.52,4.65,10.52,11.34,0,7.46-4.46,12.62-15.68,12.62h-37.99v-45.76ZM222.26,129.82c3.12,0,5.42-.25,5.42-3.82s-2.17-3.63-5.42-3.63h-15.68v7.46h15.68ZM224.81,146.45c2.74,0,4.91-.19,4.91-3.76s-2.3-3.76-4.91-3.76h-18.23v7.52h18.23Z"/><path class="cls-1" d="M308.01,111.53h14.98v33.14h30.53v12.62h-45.51v-45.76Z"/><path class="cls-1" d="M357.23,134.66c0-14.72,12.3-24.22,31.23-24.22,17.34,0,29.13,7.33,29.89,18.04h-16.06c-.83-2.8-6.12-5.35-13.7-5.35-9.82,0-15.62,4.84-15.62,11.54,0,7.2,6.5,11.22,17.4,11.22,5.23,0,11.03-.7,15.93-2.61v-2.23h-18.99v-9.31h31.04v19.76c-7.01,4.59-18.29,7.08-28.87,7.08-19.57,0-32.25-9.37-32.25-23.9Z"/><path class="cls-1" d="M426.61,111.53h37.29c12.56,0,18.8,4.78,18.8,14.02,0,6.31-3.44,10.45-9.62,12.3,5.86.38,9.56,3.76,9.56,9.37v10.07h-14.98v-7.65c0-4.08-1.15-5.29-5.23-5.29h-20.84v12.94h-14.98v-45.76ZM460.33,132.37c4.01,0,6.76-.76,6.76-4.46s-2.74-4.4-6.76-4.4h-18.74v8.86h18.74Z"/><path class="cls-1" d="M511.88,111.53h19.12l23.39,45.76h-16l-4.01-8.48h-25.94l-4.08,8.48h-15.93l23.45-45.76ZM529.21,138.04l-7.84-16.38-7.84,16.38h15.68Z"/><path class="cls-1" d="M559.92,111.53h30.69c13.26,0,22.88,9.56,22.88,22.82s-9.62,22.94-22.88,22.94h-30.69v-45.76ZM584.55,144.67c9.05,0,13.45-3.44,13.45-10.32s-4.4-10.2-13.45-10.2h-9.66v20.52h9.66Z"/><path class="cls-1" d="M191.6,39.33h46.78v11.28h-31.8v6.44h31.8v10.26h-31.8v6.5h31.8v11.28h-46.78v-45.76Z"/><path class="cls-1" d="M243.87,39.33h54.43v11.28h-19.69v34.48h-14.98v-34.48h-19.76v-11.28Z"/><path class="cls-1" d="M303.8,39.33h14.98v17.72h22.25v-17.72h14.98v45.76h-14.98v-17.78h-22.25v17.78h-14.98v-45.76Z"/><path class="cls-1" d="M252.62,111.53h46.78v11.28h-31.8v6.44h31.8v10.26h-31.8v6.5h31.8v11.28h-46.78v-45.76Z"/><path class="cls-1" d="M620.71,111.53h46.78v11.28h-31.8v6.44h31.8v10.26h-31.8v6.5h31.8v11.28h-46.78v-45.76Z"/><polygon class="cls-1" points="75.45 131.57 0 86.99 75.45 193.29 150.94 86.99 75.45 131.57"/><path class="cls-1" d="M75.47,117.06L.08,72.67v-23.84l8.12-8.6,7.95,8.76v11.63h10.26v10.72h17.52v-10.4h5.78V27.26l-6.6-6.36V0h13.22v8.81h11V0h16.27v8.81h11V0h13.22v20.9l-6.6,6.36v33.67h5.62v10.41h17.85v-10.72h10.13v-11.63l7.92-8.76,8.12,8.6v23.8l-75.38,44.43h0Z"/></g></svg>