<?xml version="1.0" encoding="UTF-8"?>
<!-- Generated by Pixelmator Pro 3.3.2 -->
<svg width="3415" height="688" viewBox="0 0 3415 688" xmlns="http://www.w3.org/2000/svg" xmlns:xlink="http://www.w3.org/1999/xlink">
    <path id="Path" fill="#855dcd" stroke="none" d="M 128.778015 -0.44397 L 613.221985 -0.44397 L 613.221985 688.445007 L 542.111023 688.445007 L 542.111023 372.888977 L 541.413025 372.888977 C 533.554016 285.677002 460.257996 217.333008 371 217.333008 C 281.740997 217.333008 208.445007 285.677002 200.585999 372.888977 L 199.889008 372.888977 L 199.889008 688.445007 L 128.778015 688.445007 L 128.778015 -0.44397 Z"/>
    <path id="path1" fill="#855dcd" stroke="none" d="M -0.110992 97.333008 L 28.778 195.110962 L 53.222 195.110962 L 53.222 590.666992 C 40.949005 590.666992 31 600.616028 31 612.888977 L 31 639.55603 L 26.554993 639.55603 C 14.281998 639.55603 4.332993 649.505005 4.332993 661.778015 L 4.332993 688.445007 L 253.221985 688.445007 L 253.221985 661.778015 C 253.221985 649.505005 243.27301 639.55603 231 639.55603 L 226.554993 639.55603 L 226.554993 612.888977 C 226.554993 600.616028 216.605988 590.666992 204.333008 590.666992 L 177.665985 590.666992 L 177.665985 97.333008 L -0.110992 97.333008 Z"/>
    <path id="path2" fill="#855dcd" stroke="none" d="M 546.554993 590.666992 C 534.281982 590.666992 524.333008 600.616028 524.333008 612.888977 L 524.333008 639.55603 L 519.888977 639.55603 C 507.616028 639.55603 497.666016 649.505005 497.666016 661.778015 L 497.666016 688.445007 L 746.554993 688.445007 L 746.554993 661.778015 C 746.554993 649.505005 736.606018 639.55603 724.333008 639.55603 L 719.888977 639.55603 L 719.888977 612.888977 C 719.888977 600.616028 709.939026 590.666992 697.666016 590.666992 L 697.666016 195.110962 L 722.111023 195.110962 L 751 97.333008 L 573.221985 97.333008 L 573.221985 590.666992 L 546.554993 590.666992 Z"/>
    <path id="path3" fill="#855dcd" stroke="none" d="M 3237.620117 551.48999 L 3237.620117 240.580994 L 3308.669922 240.580994 L 3308.669922 292.398987 L 3311.909912 292.398987 C 3317.570068 274.452026 3327.290039 260.619995 3341.050049 250.903992 C 3354.949951 241.053955 3370.810059 236.127991 3388.620117 236.127991 C 3392.669922 236.127991 3397.189941 236.330994 3402.179932 236.734985 C 3407.310059 237.005005 3411.560059 237.478027 3414.929932 238.151978 L 3414.929932 305.55603 C 3411.830078 304.47699 3406.909912 303.531982 3400.159912 302.723022 C 3393.550049 301.778015 3387.139893 301.30603 3380.929932 301.30603 C 3367.570068 301.30603 3355.560059 304.207031 3344.899902 310.01001 C 3334.370117 315.677002 3326.070068 323.571045 3320 333.691986 C 3313.929932 343.812988 3310.889893 355.484985 3310.889893 368.710022 L 3310.889893 551.48999 L 3237.620117 551.48999 Z"/>
    <path id="path4" fill="#855dcd" stroke="none" d="M 3037.379883 557.562988 C 3006.209961 557.562988 2979.290039 551.085999 2956.620117 538.130981 C 2934.080078 525.041992 2916.73999 506.554993 2904.600098 482.669983 C 2892.449951 458.650024 2886.379883 430.379028 2886.379883 397.857971 C 2886.379883 365.875977 2892.449951 337.808014 2904.600098 313.653015 C 2916.879883 289.363037 2934.01001 270.471008 2956.01001 256.97699 C 2978.01001 243.348022 3003.850098 236.532959 3033.530029 236.532959 C 3052.699951 236.532959 3070.780029 239.636963 3087.780029 245.843994 C 3104.919922 251.916992 3120.030029 261.363037 3133.120117 274.182007 C 3146.350098 287.002014 3156.73999 303.329956 3164.290039 323.166992 C 3171.850098 342.868011 3175.629883 366.348999 3175.629883 393.606995 L 3175.629883 416.075012 L 2920.790039 416.075012 L 2920.790039 366.685974 L 3105.389893 366.685974 C 3105.26001 352.652008 3102.219971 340.170013 3096.280029 329.239014 C 3090.350098 318.174011 3082.050049 309.469971 3071.389893 303.127991 C 3060.860107 296.785034 3048.580078 293.614014 3034.550049 293.614014 C 3019.570068 293.614014 3006.409912 297.257996 2995.080078 304.545044 C 2983.73999 311.697021 2974.899902 321.143005 2968.560059 332.882996 C 2962.350098 344.488007 2959.179932 357.23999 2959.050049 371.138977 L 2959.050049 414.252991 C 2959.050049 432.335999 2962.350098 447.854004 2968.959961 460.809021 C 2975.580078 473.627991 2984.820068 483.479004 2996.689941 490.361023 C 3008.570068 497.107971 3022.469971 500.481995 3038.389893 500.481995 C 3049.050049 500.481995 3058.699951 498.997986 3067.340088 496.028992 C 3075.969971 492.924988 3083.459961 488.405029 3089.810059 482.46698 C 3096.149902 476.530029 3100.939941 469.174988 3104.179932 460.403992 L 3172.590088 468.096008 C 3168.280029 486.177979 3160.040039 501.966003 3147.899902 515.460999 C 3135.889893 528.820007 3120.51001 539.210999 3101.75 546.632996 C 3082.98999 553.919983 3061.540039 557.562988 3037.379883 557.562988 Z"/>
    <path id="path5" fill="#855dcd" stroke="none" d="M 2841.800049 240.580994 L 2841.800049 297.257996 L 2663.070068 297.257996 L 2663.070068 240.580994 L 2841.800049 240.580994 Z M 2707.189941 166.093018 L 2780.469971 166.093018 L 2780.469971 457.974976 C 2780.469971 467.825989 2781.949951 475.382996 2784.919922 480.64502 C 2788.02002 485.77301 2792.070068 489.281982 2797.060059 491.171021 C 2802.060059 493.059998 2807.590088 494.005005 2813.659912 494.005005 C 2818.25 494.005005 2822.429932 493.666992 2826.209961 492.992981 C 2830.129883 492.317993 2833.090088 491.710999 2835.120117 491.171021 L 2847.469971 548.453979 C 2843.550049 549.804016 2837.949951 551.288025 2830.659912 552.906982 C 2823.51001 554.526978 2814.73999 555.471008 2804.350098 555.741028 C 2786 556.281006 2769.469971 553.515015 2754.76001 547.442017 C 2740.050049 541.234985 2728.379883 531.653992 2719.73999 518.698975 C 2711.23999 505.744995 2707.060059 489.552002 2707.189941 470.119995 L 2707.189941 166.093018 Z"/>
    <path id="path6" fill="#855dcd" stroke="none" d="M 2619.449951 322.761963 L 2552.649902 330.049011 C 2550.76001 323.302002 2547.449951 316.958984 2542.72998 311.021973 C 2538.139893 305.083984 2531.929932 300.294006 2524.110107 296.650024 C 2516.280029 293.006958 2506.699951 291.184998 2495.360107 291.184998 C 2480.120117 291.184998 2467.300049 294.490967 2456.909912 301.104004 C 2446.649902 307.716003 2441.590088 316.285034 2441.719971 326.809998 C 2441.590088 335.851013 2444.899902 343.205994 2451.639893 348.872986 C 2458.530029 354.540985 2469.860107 359.197021 2485.649902 362.840027 L 2538.679932 374.174988 C 2568.100098 380.518005 2589.959961 390.570984 2604.26001 404.335022 C 2618.699951 418.098999 2625.98999 436.114014 2626.120117 458.380005 C 2625.98999 477.947021 2620.25 495.218994 2608.919922 510.197998 C 2597.719971 525.041992 2582.129883 536.646973 2562.159912 545.013 C 2542.189941 553.380005 2519.25 557.562988 2493.340088 557.562988 C 2455.290039 557.562988 2424.649902 549.601013 2401.439941 533.677979 C 2378.22998 517.619995 2364.399902 495.286987 2359.949951 466.679016 L 2431.399902 459.796997 C 2434.639893 473.830994 2441.52002 484.424011 2452.050049 491.575989 C 2462.570068 498.728027 2476.27002 502.304016 2493.139893 502.304016 C 2510.550049 502.304016 2524.51001 498.728027 2535.040039 491.575989 C 2545.699951 484.424011 2551.030029 475.585022 2551.030029 465.059021 C 2551.030029 456.153015 2547.590088 448.799011 2540.709961 442.995972 C 2533.959961 437.19397 2523.429932 432.741028 2509.129883 429.637024 L 2456.100098 418.504028 C 2426.27002 412.296997 2404.209961 401.838989 2389.909912 387.130005 C 2375.600098 372.286011 2368.52002 353.528992 2368.649902 330.858032 C 2368.52002 311.697021 2373.709961 295.098999 2384.23999 281.063965 C 2394.899902 266.89502 2409.679932 255.964966 2428.570068 248.27301 C 2447.590088 240.447021 2469.52002 236.532959 2494.350098 236.532959 C 2530.790039 236.532959 2559.459961 244.291992 2580.379883 259.811035 C 2601.429932 275.328979 2614.449951 296.312988 2619.449951 322.761963 Z"/>
    <path id="path7" fill="#855dcd" stroke="none" d="M 2135.879883 557.765015 C 2116.169922 557.765015 2098.429932 554.257019 2082.639893 547.23999 C 2066.98999 540.088013 2054.570068 529.562012 2045.399902 515.663025 C 2036.360107 501.763977 2031.830078 484.625977 2031.830078 464.25 C 2031.830078 446.70697 2035.070068 432.200989 2041.550049 420.731018 C 2048.030029 409.26001 2056.870117 400.083984 2068.070068 393.202026 C 2079.27002 386.320007 2091.879883 381.125 2105.919922 377.616028 C 2120.090088 373.973022 2134.72998 371.341003 2149.840088 369.721985 C 2168.060059 367.833008 2182.840088 366.145996 2194.169922 364.661987 C 2205.51001 363.041992 2213.73999 360.612976 2218.870117 357.375 C 2224.129883 354.001007 2226.76001 348.806 2226.76001 341.789001 L 2226.76001 340.574005 C 2226.76001 325.325989 2222.23999 313.518005 2213.199951 305.151978 C 2204.159912 296.785034 2191.139893 292.60199 2174.129883 292.60199 C 2156.189941 292.60199 2141.949951 296.515015 2131.419922 304.342041 C 2121.030029 312.169006 2114.02002 321.411987 2110.370117 332.072998 L 2041.959961 322.356995 C 2047.350098 303.464966 2056.26001 287.677002 2068.669922 274.992004 C 2081.090088 262.171997 2096.27002 252.591003 2114.219971 246.249023 C 2132.169922 239.771973 2152 236.532959 2173.72998 236.532959 C 2188.709961 236.532959 2203.620117 238.286987 2218.459961 241.796021 C 2233.310059 245.303955 2246.870117 251.106995 2259.149902 259.203979 C 2271.429932 267.165039 2281.280029 278.028015 2288.699951 291.791992 C 2296.26001 305.557007 2300.030029 322.761963 2300.030029 343.40799 L 2300.030029 551.491028 L 2229.590088 551.491028 L 2229.590088 508.781006 L 2227.169922 508.781006 C 2222.709961 517.416992 2216.439941 525.513977 2208.340088 533.070984 C 2200.379883 540.492981 2190.330078 546.497986 2178.179932 551.085999 C 2166.169922 555.539001 2152.070068 557.765015 2135.879883 557.765015 Z M 2154.899902 503.922974 C 2169.610107 503.922974 2182.360107 501.021973 2193.159912 495.218994 C 2203.959961 489.281982 2212.25 481.455017 2218.060059 471.739014 C 2223.98999 462.02301 2226.959961 451.429993 2226.959961 439.960022 L 2226.959961 403.322998 C 2224.669922 405.211975 2220.76001 406.966003 2215.219971 408.585999 C 2209.820068 410.205017 2203.75 411.622009 2197.01001 412.835999 C 2190.26001 414.051025 2183.580078 415.130005 2176.969971 416.075012 C 2170.350098 417.02002 2164.620117 417.828979 2159.76001 418.504028 C 2148.830078 419.987976 2139.050049 422.416992 2130.409912 425.791016 C 2121.77002 429.164978 2114.959961 433.888 2109.969971 439.960022 C 2104.969971 445.89801 2102.47998 453.588989 2102.47998 463.034973 C 2102.47998 476.530029 2107.399902 486.718018 2117.25 493.599976 C 2127.100098 500.481995 2139.649902 503.922974 2154.899902 503.922974 Z"/>
    <path id="path8" fill="#855dcd" stroke="none" d="M 1853.050049 557.562988 C 1822.02002 557.562988 1795.359985 550.747986 1773.099976 537.119019 C 1750.969971 523.48999 1733.900024 504.664978 1721.890015 480.64502 C 1710.01001 456.491028 1704.069946 428.692017 1704.069946 397.250977 C 1704.069946 365.674011 1710.150024 337.808014 1722.290039 313.653015 C 1734.439941 289.363037 1751.569946 270.471008 1773.709961 256.97699 C 1795.969971 243.348022 1822.280029 236.532959 1852.650024 236.532959 C 1877.880005 236.532959 1900.209961 241.188965 1919.649902 250.5 C 1939.209961 259.676025 1954.800049 272.697998 1966.399902 289.56604 C 1978.01001 306.299011 1984.620117 325.865967 1986.23999 348.265991 L 1916.209961 348.265991 C 1913.369995 333.286987 1906.619995 320.804993 1895.959961 310.81897 C 1885.439941 300.698975 1871.339966 295.638 1853.660034 295.638 C 1838.680054 295.638 1825.52002 299.687012 1814.189941 307.782959 C 1802.849976 315.744995 1794.01001 327.214966 1787.670044 342.194 C 1781.459961 357.171997 1778.359985 375.119995 1778.359985 396.036011 C 1778.359985 417.221985 1781.459961 435.439026 1787.670044 450.687988 C 1793.880005 465.802002 1802.579956 477.473999 1813.780029 485.705994 C 1825.119995 493.802002 1838.410034 497.851013 1853.660034 497.851013 C 1864.449951 497.851013 1874.099976 495.827026 1882.599976 491.778015 C 1891.23999 487.594971 1898.459961 481.590027 1904.26001 473.763 C 1910.069946 465.937012 1914.050049 456.422974 1916.209961 445.223022 L 1986.23999 445.223022 C 1984.48999 467.218994 1978.01001 486.718018 1966.810059 503.721008 C 1955.610107 520.588989 1940.360107 533.812988 1921.060059 543.393982 C 1901.77002 552.840027 1879.099976 557.562988 1853.050049 557.562988 Z"/>
    <path id="path9" fill="#855dcd" stroke="none" d="M 1504.23999 551.48999 L 1504.23999 240.580994 L 1575.290039 240.580994 L 1575.290039 292.398987 L 1578.530029 292.398987 C 1584.189941 274.452026 1593.910034 260.619995 1607.670044 250.903992 C 1621.569946 241.053955 1637.430054 236.127991 1655.23999 236.127991 C 1659.290039 236.127991 1663.810059 236.330994 1668.800049 236.734985 C 1673.930054 237.005005 1678.180054 237.478027 1681.560059 238.151978 L 1681.560059 305.55603 C 1678.449951 304.47699 1673.530029 303.531982 1666.780029 302.723022 C 1660.170044 301.778015 1653.76001 301.30603 1647.550049 301.30603 C 1634.189941 301.30603 1622.180054 304.207031 1611.52002 310.01001 C 1600.98999 315.677002 1592.699951 323.571045 1586.619995 333.691986 C 1580.550049 343.812988 1577.51001 355.484985 1577.51001 368.710022 L 1577.51001 551.48999 L 1504.23999 551.48999 Z"/>
    <path id="path10" fill="#855dcd" stroke="none" d="M 1266.400024 557.765015 C 1246.699951 557.765015 1228.959961 554.257019 1213.170044 547.23999 C 1197.52002 540.088013 1185.099976 529.562012 1175.920044 515.663025 C 1166.880005 501.763977 1162.359985 484.625977 1162.359985 464.25 C 1162.359985 446.70697 1165.599976 432.200989 1172.079956 420.731018 C 1178.560059 409.26001 1187.390015 400.083984 1198.589966 393.202026 C 1209.790039 386.320007 1222.410034 381.125 1236.449951 377.616028 C 1250.619995 373.973022 1265.26001 371.341003 1280.369995 369.721985 C 1298.589966 367.833008 1313.359985 366.145996 1324.699951 364.661987 C 1336.030029 363.041992 1344.27002 360.612976 1349.390015 357.375 C 1354.660034 354.001007 1357.290039 348.806 1357.290039 341.789001 L 1357.290039 340.574005 C 1357.290039 325.325989 1352.77002 313.518005 1343.72998 305.151978 C 1334.680054 296.785034 1321.660034 292.60199 1304.660034 292.60199 C 1286.709961 292.60199 1272.47998 296.515015 1261.949951 304.342041 C 1251.560059 312.169006 1244.540039 321.411987 1240.900024 332.072998 L 1172.47998 322.356995 C 1177.880005 303.464966 1186.790039 287.677002 1199.199951 274.992004 C 1211.619995 262.171997 1226.800049 252.591003 1244.75 246.249023 C 1262.689941 239.771973 1282.530029 236.532959 1304.26001 236.532959 C 1319.22998 236.532959 1334.140015 238.286987 1348.98999 241.796021 C 1363.829956 245.303955 1377.390015 251.106995 1389.670044 259.203979 C 1401.949951 267.165039 1411.800049 278.028015 1419.22998 291.791992 C 1426.780029 305.557007 1430.560059 322.761963 1430.560059 343.40799 L 1430.560059 551.491028 L 1360.119995 551.491028 L 1360.119995 508.781006 L 1357.689941 508.781006 C 1353.23999 517.416992 1346.959961 525.513977 1338.869995 533.070984 C 1330.910034 540.492981 1320.849976 546.497986 1308.709961 551.085999 C 1296.699951 555.539001 1282.599976 557.765015 1266.400024 557.765015 Z M 1285.430054 503.922974 C 1300.140015 503.922974 1312.890015 501.021973 1323.689941 495.218994 C 1334.47998 489.281982 1342.780029 481.455017 1348.579956 471.739014 C 1354.52002 462.02301 1357.48999 451.429993 1357.48999 439.960022 L 1357.48999 403.322998 C 1355.199951 405.211975 1351.280029 406.966003 1345.75 408.585999 C 1340.349976 410.205017 1334.280029 411.622009 1327.530029 412.835999 C 1320.790039 414.051025 1314.109985 415.130005 1307.48999 416.075012 C 1300.880005 417.02002 1295.150024 417.828979 1290.290039 418.504028 C 1279.359985 419.987976 1269.569946 422.416992 1260.939941 425.791016 C 1252.300049 429.164978 1245.48999 433.888 1240.48999 439.960022 C 1235.5 445.89801 1233.01001 453.588989 1233.01001 463.034973 C 1233.01001 476.530029 1237.930054 486.718018 1247.780029 493.599976 C 1257.630005 500.481995 1270.180054 503.922974 1285.430054 503.922974 Z"/>
    <path id="path11" fill="#855dcd" stroke="none" d="M 1130.130005 240.580994 L 1130.130005 297.257996 L 946.329956 297.257996 L 946.329956 240.580994 L 1130.130005 240.580994 Z M 992.280029 551.48999 L 992.280029 211.230957 C 992.280029 190.315002 996.599976 172.906982 1005.23999 159.007996 C 1014.01001 145.109009 1025.75 134.718018 1040.459961 127.835999 C 1055.170044 120.953979 1071.48999 117.513 1089.439941 117.513 C 1102.130005 117.513 1113.390015 118.525024 1123.25 120.549011 C 1133.099976 122.573975 1140.380005 124.39502 1145.109985 126.015015 L 1130.530029 182.69104 C 1127.430054 181.745972 1123.52002 180.802002 1118.790039 179.856995 C 1114.069946 178.776978 1108.810059 178.238037 1103 178.238037 C 1089.369995 178.238037 1079.72998 181.544006 1074.060059 188.156006 C 1068.530029 194.632996 1065.76001 203.94397 1065.76001 216.088989 L 1065.76001 551.48999 L 992.280029 551.48999 Z"/>
</svg>
